<svg xmlns="http://www.w3.org/2000/svg" width="16.426" height="16.448" viewBox="0 0 16.426 16.448">
  <g id="Group_763" data-name="Group 763" transform="translate(-145.698 -9.919)">
    <path id="gas-pump" d="M16.125,1.693a1.028,1.028,0,0,0-1.454,0L12.637,3.727a1.028,1.028,0,0,0-.3.727v7.538a.343.343,0,0,1-.343.343H10.965V3.769A3.774,3.774,0,0,0,7.2,0H3.769A3.774,3.774,0,0,0,0,3.769v8.909a3.774,3.774,0,0,0,3.769,3.769H7.2a3.769,3.769,0,0,0,3.358-2.063c.023,0,.046.007.069.007h1.371a2.4,2.4,0,0,0,2.4-2.4V4.88l1.733-1.733A1.028,1.028,0,0,0,16.125,1.693ZM3.769,2.056H7.2A1.713,1.713,0,0,1,8.909,3.769v2.4h-1.5a2.035,2.035,0,0,0-.357-.624l.336-.561A1.028,1.028,0,0,0,5.629,3.926l-.548.911a2.051,2.051,0,0,0-1.528,1.33h-1.5v-2.4A1.713,1.713,0,0,1,3.769,2.056ZM7.2,14.392H3.769a1.713,1.713,0,0,1-1.713-1.713V8.224H8.909v4.455A1.713,1.713,0,0,1,7.2,14.392Z" transform="translate(145.698 9.919)" fill="#fff" opacity="0.6"/>
  </g>
</svg>
